<svg width="7" height="11" viewBox="0 0 7 11" fill="none" xmlns="http://www.w3.org/2000/svg">
<path d="M1.91784 9.87951L6.0166 5.79291C6.06525 5.74426 6.09963 5.69156 6.11974 5.6348C6.14017 5.57804 6.15039 5.51723 6.15039 5.45236C6.15039 5.38749 6.14017 5.32668 6.11974 5.26992C6.09963 5.21316 6.06525 5.16046 6.0166 5.11181L1.91784 1.01305C1.80432 0.899532 1.66243 0.842773 1.49215 0.842773C1.32188 0.842773 1.17593 0.903586 1.0543 1.02521C0.932679 1.14684 0.871867 1.28873 0.871867 1.4509C0.871867 1.61307 0.932679 1.75496 1.0543 1.87659L4.63008 5.45236L1.0543 9.02814C0.940787 9.14165 0.884029 9.28144 0.884029 9.4475C0.884029 9.61388 0.944841 9.75788 1.06647 9.87951C1.18809 10.0011 1.32999 10.0619 1.49215 10.0619C1.65432 10.0619 1.79622 10.0011 1.91784 9.87951Z" fill="white"/>
</svg>
