<svg width="6" height="10" viewBox="0 0 6 10" fill="none" xmlns="http://www.w3.org/2000/svg">
<path d="M1.06823 9.484L5.16699 5.3974C5.21564 5.34875 5.25002 5.29605 5.27013 5.23929C5.29056 5.18253 5.30078 5.12172 5.30078 5.05685C5.30078 4.99199 5.29056 4.93117 5.27013 4.87442C5.25002 4.81766 5.21564 4.76495 5.16699 4.7163L1.06823 0.617541C0.954715 0.504024 0.812819 0.447266 0.642544 0.447266C0.47227 0.447266 0.32632 0.508078 0.204695 0.629703C0.0830698 0.751328 0.0222573 0.893224 0.0222573 1.05539C0.0222573 1.21756 0.0830698 1.35945 0.204695 1.48108L3.78047 5.05685L0.204695 8.63263C0.0911779 8.74614 0.0344195 8.88593 0.0344195 9.05199C0.0344195 9.21837 0.095232 9.36238 0.216857 9.484C0.338482 9.60563 0.480378 9.66644 0.642544 9.66644C0.804711 9.66644 0.946607 9.60563 1.06823 9.484Z" fill="black"/>
</svg>
