<svg width="50" height="50" viewBox="0 0 50 50" fill="none" xmlns="http://www.w3.org/2000/svg">
<path d="M27.046 2.09009C27.046 1.53665 27.2658 1.00587 27.6572 0.614531C28.0485 0.223187 28.5793 0.00333249 29.1327 0.00333249C34.6652 0.0094083 39.9693 2.2099 43.8814 6.12202C47.7935 10.0341 49.9939 15.3384 50 20.8709C50 21.4244 49.7801 21.9552 49.3888 22.3465C48.9975 22.7379 48.4667 22.9577 47.9133 22.9577C47.3598 22.9577 46.8291 22.7379 46.4377 22.3465C46.0464 21.9552 45.8265 21.4244 45.8265 20.8709C45.8216 16.4449 44.0612 12.2016 40.9315 9.07193C37.8019 5.94226 33.5586 4.18183 29.1327 4.17685C28.5793 4.17685 28.0485 3.957 27.6572 3.56566C27.2658 3.17431 27.046 2.64354 27.046 2.09009ZM29.1327 12.5239C31.3464 12.5239 33.4695 13.4033 35.0349 14.9687C36.6002 16.5341 37.4796 18.6572 37.4796 20.8709C37.4796 21.4244 37.6995 21.9552 38.0908 22.3465C38.4821 22.7379 39.0129 22.9577 39.5663 22.9577C40.1198 22.9577 40.6505 22.7379 41.0419 22.3465C41.4332 21.9552 41.6531 21.4244 41.6531 20.8709C41.6498 17.5513 40.3296 14.3686 37.9823 12.0212C35.635 9.67388 32.4523 8.35369 29.1327 8.35038C28.5793 8.35038 28.0485 8.57023 27.6572 8.96157C27.2658 9.35292 27.046 9.88369 27.046 10.4371C27.046 10.9906 27.2658 11.5214 27.6572 11.9127C28.0485 12.304 28.5793 12.5239 29.1327 12.5239ZM48.1073 34.9336C49.3166 36.1463 49.9957 37.789 49.9957 39.5015C49.9957 41.2141 49.3166 42.8568 48.1073 44.0695L46.2084 46.2585C29.1181 62.6208 -12.4705 21.0421 3.6391 3.89723L6.03884 1.81047C7.25283 0.634948 8.88082 -0.0153459 10.5706 0.000275055C12.2604 0.0158961 13.8761 0.696176 15.0681 1.89394C15.1328 1.95863 18.9995 6.98146 18.9995 6.98146C20.1469 8.18683 20.7856 9.78801 20.7828 11.4521C20.7801 13.1163 20.1362 14.7154 18.9849 15.917L16.5685 18.9553C17.9058 22.2046 19.8719 25.1577 22.354 27.6448C24.836 30.1319 27.785 32.104 31.0316 33.4478L34.0887 31.0168C35.2904 29.8664 36.8892 29.2232 38.5528 29.2209C40.2164 29.2185 41.817 29.8572 43.022 31.0043C43.022 31.0043 48.0426 34.8689 48.1073 34.9336ZM45.236 37.9678C45.236 37.9678 40.2424 34.126 40.1778 34.0614C39.7479 33.6351 39.167 33.3959 38.5616 33.3959C37.9562 33.3959 37.3753 33.6351 36.9454 34.0614C36.8891 34.1198 32.6801 37.4732 32.6801 37.4732C32.3965 37.699 32.0589 37.847 31.7007 37.9026C31.3425 37.9582 30.976 37.9195 30.6372 37.7904C26.4313 36.2244 22.6111 33.7728 19.4353 30.6017C16.2595 27.4305 13.8023 23.6138 12.2302 19.4102C12.0908 19.0668 12.0453 18.6925 12.0985 18.3258C12.1517 17.9591 12.3016 17.6131 12.5327 17.3235C12.5327 17.3235 15.8861 13.1124 15.9425 13.0581C16.3687 12.6282 16.6079 12.0473 16.6079 11.4419C16.6079 10.8365 16.3687 10.2556 15.9425 9.82572C15.8778 9.76311 12.0361 4.76532 12.0361 4.76532C11.5998 4.37407 11.0303 4.16453 10.4444 4.17967C9.85858 4.1948 9.3007 4.43345 8.88514 4.8467L6.4854 6.93347C-5.28794 21.0901 30.752 55.1314 43.1576 43.408L45.0586 41.2169C45.5041 40.8042 45.7717 40.2345 45.8048 39.6282C45.8379 39.0219 45.6339 38.4265 45.236 37.9678Z" fill="#1C1C1C"/>
</svg>
