<svg width="70" height="69" viewBox="0 0 70 69" fill="none" xmlns="http://www.w3.org/2000/svg">
<path d="M38.8295 7.74829C42.4895 7.74829 45.9996 9.18114 48.5876 11.7316C51.1756 14.2821 52.6295 17.7413 52.6295 21.3483C52.6295 24.9552 51.1756 28.4144 48.5876 30.9649C45.9996 33.5154 42.4895 34.9483 38.8295 34.9483C35.1695 34.9483 31.6594 33.5154 29.0714 30.9649C26.4834 28.4144 25.0295 24.9552 25.0295 21.3483C25.0295 17.7413 26.4834 14.2821 29.0714 11.7316C31.6594 9.18114 35.1695 7.74829 38.8295 7.74829ZM56.0484 38.3483C56.957 38.3447 57.8574 38.5179 58.698 38.858C59.5385 39.1981 60.3026 39.6984 60.9465 40.3301C61.5905 40.9619 62.1015 41.7127 62.4504 42.5395C62.7992 43.3663 62.979 44.2528 62.9795 45.1483C62.9795 50.8977 60.1056 55.2327 55.6137 58.0581C51.1908 60.8359 45.2292 62.1483 38.8295 62.1483C35.7935 62.1483 32.8575 61.8525 30.1355 61.2473C30.3425 59.7751 30.0803 58.2451 29.3489 56.9055L29.3075 56.8307L29.0211 56.3649L26.996 53.4375C26.2516 52.3409 25.192 51.4885 23.9528 50.9893C22.7136 50.4902 21.3514 50.3671 20.0408 50.6359L19.9442 50.6563L19.4129 50.7991L17.5706 51.4043C17.0117 50.8083 16.5222 50.1526 16.1112 49.4493C15.68 48.7149 15.366 48.0077 15.1452 47.3175L16.8012 45.7705C17.7151 44.9059 18.3795 43.8175 18.7262 42.6166C19.073 41.4158 19.0897 40.1458 18.7746 38.9365C19.6573 38.5483 20.613 38.3479 21.5795 38.3483H56.0484ZM15.2522 39.2493L13.8722 36.0499C13.227 34.5471 11.6814 33.7311 10.1634 34.0439L9.83914 34.1255L8.11414 34.6695C6.40294 35.2101 5.09539 36.6517 4.67104 38.4639C3.6671 42.7717 4.87114 48.0179 8.29009 54.1991C11.7021 60.3735 15.4385 64.0829 19.506 65.3341C21.0861 65.8203 22.7835 65.4701 24.06 64.4127L24.3947 64.1067L25.7057 62.8113C26.2565 62.2525 26.6122 61.5353 26.7214 60.7638C26.8306 59.9922 26.6875 59.2065 26.3129 58.5205L26.1197 58.2077L24.1463 55.3517C23.7875 54.8125 23.2729 54.3918 22.6689 54.1439C22.065 53.896 21.3995 53.8324 20.7584 53.9611L20.4134 54.0529L16.7667 55.2531C15.3143 54.1651 14.0999 52.8051 13.1304 51.1561C12.299 49.7451 11.7504 48.3171 11.4986 46.8687L11.3951 46.1411L14.4276 43.3021C14.9171 42.832 15.2651 42.2377 15.4331 41.5848C15.6012 40.932 15.5827 40.2461 15.3798 39.6029L15.2522 39.2493Z" fill="white"/>
</svg>
