<svg width="213" height="32" viewBox="0 0 213 32" fill="none" xmlns="http://www.w3.org/2000/svg">
<path d="M7.59328 19.2942H22.3866L23.4151 16.1782H8.62185L7.59328 19.2942ZM3.35798 32.0001L0 26.948L4.20504 14.3026L2.26891 11.3682H27.1361L29.1025 14.3026L24.1714 29.0656L20.2689 32.0001H18.1513L20.7832 24.074H5.98992L3.35798 32.0001Z" fill="white"/>
<path d="M54.5 11.3682H76.2657L78.2018 14.3026L77.5665 16.1782H68.0673L62.7127 32.0001L59.4152 27.0085L63.0152 16.1782H52.669L54.5 11.3682Z" fill="white"/>
<path d="M81.0571 27.19H95.8503L99.5109 16.1782H84.7478L81.0571 27.19ZM78.3646 11.3682H103.262L105.198 14.3026L100.267 29.0656L96.3949 32.0001H79.4537L76.0957 26.948L80.3008 14.3026L78.3646 11.3682Z" fill="white"/>
<path d="M105.337 11.3682H130.205L132.141 14.3026L127.24 29.0656L123.337 32.0001H106.427L103.069 26.948L105.61 19.2942H110.662L108.03 27.19H122.793L126.484 16.1782H106.638L107.274 14.3026L105.337 11.3682Z" fill="white"/>
<path d="M134.973 27.19H149.766L153.427 16.1782H138.664L134.973 27.19ZM132.281 11.3682H157.178L159.114 14.3026L154.183 29.0656L150.311 32.0001H133.37L130.012 26.948L134.217 14.3026L132.281 11.3682Z" fill="white"/>
<path d="M159.254 11.3682H184.151L186.087 14.3026L184.423 19.2942H179.371L180.4 16.1782H165.606L161.946 27.19H176.739L177.768 24.074H182.82L181.156 29.0656L177.284 32.0001H160.343L156.985 26.948L161.19 14.3026L159.254 11.3682Z" fill="white"/>
<path d="M186.045 11.3682H210.942L212.878 14.3026L212.243 16.1782H192.428L191.399 19.2942H211.215L207.947 29.0656L204.075 32.0001H187.164L183.957 27.19H203.531L204.559 24.074H184.744L188.011 14.3026L186.045 11.3682Z" fill="white"/>
<path fill-rule="evenodd" clip-rule="evenodd" d="M50.9462 0L40.655 26.2996L31.4436 15.9828L29.5566 21.3768L39.0417 32H43.7936L43.8284 31.911L56.3153 0H50.9462Z" fill="white"/>
</svg>
