<svg width="50" height="50" viewBox="0 0 50 50" fill="none" xmlns="http://www.w3.org/2000/svg">
<g clip-path="url(#clip0_50_364)">
<path d="M25.0003 12.5C23.3522 12.5 21.741 12.9887 20.3706 13.9044C19.0002 14.8201 17.9321 16.1216 17.3013 17.6443C16.6706 19.167 16.5056 20.8426 16.8271 22.4591C17.1487 24.0756 17.9423 25.5605 19.1078 26.7259C20.2732 27.8913 21.7581 28.685 23.3746 29.0065C24.9911 29.3281 26.6666 29.1631 28.1894 28.5323C29.7121 27.9016 31.0136 26.8335 31.9292 25.4631C32.8449 24.0927 33.3337 22.4815 33.3337 20.8333C33.3337 18.6232 32.4557 16.5036 30.8929 14.9408C29.3301 13.378 27.2105 12.5 25.0003 12.5ZM25.0003 25C24.1762 25 23.3707 24.7556 22.6855 24.2978C22.0002 23.84 21.4662 23.1892 21.1508 22.4278C20.8355 21.6665 20.753 20.8287 20.9137 20.0205C21.0745 19.2122 21.4713 18.4698 22.0541 17.8871C22.6368 17.3043 23.3792 16.9075 24.1875 16.7467C24.9957 16.586 25.8335 16.6685 26.5948 16.9838C27.3562 17.2992 28.0069 17.8333 28.4648 18.5185C28.9226 19.2037 29.167 20.0092 29.167 20.8333C29.167 21.9384 28.728 22.9982 27.9466 23.7796C27.1652 24.561 26.1054 25 25.0003 25Z" fill="#1C1C1C"/>
<path d="M24.9997 49.9998C23.2454 50.0088 21.5145 49.5973 19.9519 48.7999C18.3893 48.0025 17.0405 46.8423 16.0184 45.4164C8.07884 34.4644 4.05176 26.231 4.05176 20.9435C4.05176 15.3878 6.25876 10.0596 10.1873 6.13111C14.1158 2.20261 19.4439 -0.00439453 24.9997 -0.00439453C30.5554 -0.00439453 35.8836 2.20261 39.8121 6.13111C43.7406 10.0596 45.9476 15.3878 45.9476 20.9435C45.9476 26.231 41.9205 34.4644 33.9809 45.4164C32.9589 46.8423 31.6101 48.0025 30.0475 48.7999C28.4849 49.5973 26.754 50.0088 24.9997 49.9998ZM24.9997 4.54352C20.6505 4.54849 16.481 6.27837 13.4057 9.35367C10.3304 12.429 8.60047 16.5986 8.59551 20.9477C8.59551 25.1352 12.5393 32.8789 19.6976 42.7519C20.3053 43.5889 21.1025 44.2702 22.0241 44.7399C22.9456 45.2097 23.9653 45.4546 24.9997 45.4546C26.034 45.4546 27.0537 45.2097 27.9753 44.7399C28.8968 44.2702 29.6941 43.5889 30.3018 42.7519C37.4601 32.8789 41.4038 25.1352 41.4038 20.9477C41.3989 16.5986 39.669 12.429 36.5937 9.35367C33.5184 6.27837 29.3488 4.54849 24.9997 4.54352Z" fill="#1C1C1C"/>
</g>
<defs>
<clipPath id="clip0_50_364">
<rect width="50" height="50" fill="white"/>
</clipPath>
</defs>
</svg>
