<svg width="50" height="46" viewBox="0 0 50 46" fill="none" xmlns="http://www.w3.org/2000/svg">
<path d="M39.5833 0.083252H10.4167C7.65501 0.08656 5.00741 1.18509 3.05462 3.13788C1.10184 5.09066 0.00330804 7.73826 0 10.4999L0 35.4999C0.00330804 38.2616 1.10184 40.9092 3.05462 42.862C5.00741 44.8148 7.65501 45.9133 10.4167 45.9166H39.5833C42.345 45.9133 44.9926 44.8148 46.9454 42.862C48.8982 40.9092 49.9967 38.2616 50 35.4999V10.4999C49.9967 7.73826 48.8982 5.09066 46.9454 3.13788C44.9926 1.18509 42.345 0.08656 39.5833 0.083252ZM10.4167 4.24992H39.5833C40.8308 4.25237 42.049 4.62807 43.0812 5.32868C44.1133 6.02928 44.9122 7.02273 45.375 8.18117L29.4208 24.1374C28.2467 25.3068 26.6571 25.9634 25 25.9634C23.3429 25.9634 21.7533 25.3068 20.5792 24.1374L4.625 8.18117C5.08781 7.02273 5.88669 6.02928 6.91885 5.32868C7.951 4.62807 9.1692 4.25237 10.4167 4.24992ZM39.5833 41.7499H10.4167C8.75906 41.7499 7.16935 41.0914 5.99725 39.9193C4.82515 38.7472 4.16667 37.1575 4.16667 35.4999V13.6249L17.6333 27.0833C19.5888 29.0338 22.238 30.1292 25 30.1292C27.762 30.1292 30.4112 29.0338 32.3667 27.0833L45.8333 13.6249V35.4999C45.8333 37.1575 45.1749 38.7472 44.0028 39.9193C42.8306 41.0914 41.2409 41.7499 39.5833 41.7499Z" fill="#1C1C1C"/>
</svg>
