<svg width="74" height="74" viewBox="0 0 74 74" fill="none" xmlns="http://www.w3.org/2000/svg">
<path d="M37.3802 10.0824C38.5773 10.0824 39.7627 10.3182 40.8687 10.7763C41.9747 11.2344 42.9796 11.9059 43.8261 12.7524C44.6726 13.5989 45.3441 14.6038 45.8022 15.7098C46.2603 16.8158 46.4961 18.0012 46.4961 19.1983C46.4961 20.3954 46.2603 21.5808 45.8022 22.6868C45.3441 23.7928 44.6726 24.7977 43.8261 25.6442C42.9796 26.4907 41.9747 27.1621 40.8687 27.6202C39.7627 28.0784 38.5773 28.3141 37.3802 28.3141C34.9625 28.3141 32.6439 27.3537 30.9343 25.6442C29.2248 23.9346 28.2643 21.616 28.2643 19.1983C28.2643 16.7806 29.2248 14.4619 30.9343 12.7524C32.6439 11.0428 34.9625 10.0824 37.3802 10.0824Z" fill="white"/>
<path d="M16.8486 14.6357C18.6637 14.6357 20.4044 15.3568 21.6879 16.6402C22.9713 17.9237 23.6924 19.6644 23.6924 21.4795C23.6924 23.2946 22.9713 25.0353 21.6879 26.3188C20.4044 27.6022 18.6637 28.3232 16.8486 28.3232C15.0336 28.3232 13.2928 27.6022 12.0094 26.3188C10.7259 25.0353 10.0049 23.2946 10.0049 21.4795C10.0049 19.6644 10.7259 17.9237 12.0094 16.6402C13.2928 15.3568 15.0336 14.6357 16.8486 14.6357ZM57.9111 14.6357C59.7262 14.6357 61.4669 15.3568 62.7504 16.6402C64.0338 17.9237 64.7549 19.6644 64.7549 21.4795C64.7549 23.2946 64.0338 25.0353 62.7504 26.3188C61.4669 27.6022 59.7262 28.3232 57.9111 28.3232C56.0961 28.3232 54.3553 27.6022 53.0719 26.3188C51.7884 25.0353 51.0674 23.2946 51.0674 21.4795C51.0674 19.6644 51.7884 17.9237 53.0719 16.6402C54.3553 15.3568 56.0961 14.6357 57.9111 14.6357Z" fill="white"/>
<path d="M51.0674 37.4163C51.059 36.2118 50.5745 35.0595 49.7198 34.2108C48.8651 33.362 47.7094 32.8857 46.5049 32.8857H28.2549C27.0448 32.8857 25.8843 33.3664 25.0287 34.2221C24.1731 35.0777 23.6924 36.2382 23.6924 37.4482V51.1357C23.6927 52.5717 23.9174 53.9987 24.3585 55.3652C25.3688 58.4618 27.4499 61.0968 30.2281 62.797C33.0063 64.4973 36.2997 65.1514 39.5168 64.642C42.734 64.1325 45.6641 62.4929 47.7811 60.0175C49.8981 57.542 51.0633 54.393 51.0674 51.1357V37.4163Z" fill="white"/>
<path d="M55.6299 37.4482C55.6299 35.7829 55.1873 34.2271 54.4071 32.8857H64.7549C65.9649 32.8857 67.1254 33.3664 67.9811 34.2221C68.8367 35.0777 69.3174 36.2382 69.3174 37.4482V48.8545C69.318 50.7219 68.8601 52.561 67.9839 54.2101C67.1077 55.8593 65.84 57.268 64.2921 58.3127C62.7442 59.3574 60.9634 60.0061 59.1062 60.2018C57.2491 60.3974 55.3723 60.1341 53.6406 59.4349C54.9538 56.8643 55.6357 54.0178 55.6299 51.1312V37.4482ZM19.1299 37.4482V51.1357C19.1299 54.1242 19.8462 56.9438 21.1191 59.4349C19.3875 60.1341 17.5107 60.3974 15.6535 60.2018C13.7963 60.0061 12.0156 59.3574 10.4677 58.3127C8.91982 57.268 7.65209 55.8593 6.77588 54.2101C5.89966 52.561 5.44176 50.7219 5.44238 48.8545V37.4482C5.44238 36.2382 5.92307 35.0777 6.77871 34.2221C7.63434 33.3664 8.79483 32.8857 10.0049 32.8857H20.3526C19.577 34.2271 19.1299 35.7829 19.1299 37.4482Z" fill="white"/>
</svg>
