<svg width="282" height="299" viewBox="0 0 282 299" fill="none" xmlns="http://www.w3.org/2000/svg">
<mask id="mask0_50_129" style="mask-type:alpha" maskUnits="userSpaceOnUse" x="0" y="0" width="282" height="299">
<rect y="0.665283" width="281.091" height="297.338" fill="#D9D9D9"/>
</mask>
<g mask="url(#mask0_50_129)">
<path fill-rule="evenodd" clip-rule="evenodd" d="M267.825 -259.874L66.7934 -52.0491L66.9645 -51.8638L-132.196 154.027L-130.161 156.23L70.871 -51.5943L70.6999 -51.7795L269.861 -257.67L267.825 -259.874ZM275.101 -251.959L74.0694 -44.1345L74.2405 -43.9494L-124.921 161.942L-122.885 164.145L78.1469 -43.6797L77.9759 -43.8648L277.137 -249.756L275.101 -251.959ZM81.3455 -36.2202L282.377 -244.045L284.413 -241.841L85.252 -35.9505L85.4231 -35.7653L-115.609 172.059L-117.644 169.856L81.5166 -36.0349L81.3455 -36.2202ZM289.653 -236.13L88.6216 -28.3056L88.7926 -28.1205L-110.368 177.77L-108.333 179.974L92.699 -27.8508L92.528 -28.0359L291.689 -233.927L289.653 -236.13ZM95.8976 -20.3912L296.929 -228.216L298.965 -226.012L99.8041 -20.1216L99.9751 -19.9364L-101.057 187.888L-103.092 185.685L96.0687 -20.2061L95.8976 -20.3912ZM304.205 -220.301L103.174 -12.4767L103.345 -12.2915L-95.8161 193.599L-93.7802 195.803L107.251 -12.0219L107.08 -12.2071L306.241 -218.098L304.205 -220.301ZM110.45 -4.56215L311.481 -212.387L313.517 -210.183L114.356 -4.29248L114.527 -4.10735L-86.5045 203.717L-88.5403 201.514L110.621 -4.37701L110.45 -4.56215ZM318.757 -204.473L117.726 3.3522L117.897 3.53741L-81.2642 209.428L-79.2283 211.632L121.803 3.80704L121.632 3.62183L320.793 -202.269L318.757 -204.473ZM125.002 11.2667L326.033 -196.558L328.069 -194.354L128.908 11.5364L129.079 11.7216L-71.9523 219.546L-73.9881 217.343L125.173 11.4519L125.002 11.2667ZM333.309 -188.643L132.278 19.1813L132.449 19.3665L-66.712 225.257L-64.6762 227.461L136.355 19.6361L136.184 19.4509L335.345 -186.44L333.309 -188.643ZM139.554 27.0956L340.586 -180.729L342.621 -178.526L143.46 27.3653L143.632 27.5505L-57.4002 235.375L-59.436 233.172L139.725 27.2808L139.554 27.0956ZM347.862 -172.815L146.83 35.0102L147.001 35.1954L-52.1598 241.086L-50.124 243.29L150.908 35.465L150.737 35.2798L349.897 -170.611L347.862 -172.815ZM154.106 42.9246L355.138 -164.9L357.173 -162.697L158.012 43.1942L158.184 43.3794L-42.8481 251.204L-44.8839 249.001L154.277 43.1097L154.106 42.9246ZM362.414 -156.986L161.382 50.8391L161.553 51.0244L-37.6078 256.915L-35.572 259.119L165.46 51.2939L165.288 51.1086L364.449 -154.782L362.414 -156.986ZM168.658 58.7537L369.69 -149.071L371.726 -146.868L172.565 59.0233L172.736 59.2085L-28.2957 267.033L-30.3315 264.83L168.829 58.9389L168.658 58.7537ZM376.966 -141.157L175.934 66.668L176.105 66.8532L-23.0556 272.744L-21.0198 274.948L180.012 67.1229L179.841 66.9377L379.002 -138.953L376.966 -141.157ZM183.21 74.5826L384.242 -133.242L386.278 -131.039L187.117 74.8521L187.288 75.0374L-13.7437 282.862L-15.7795 280.659L183.381 74.7678L183.21 74.5826ZM391.518 -125.328L190.486 82.4969L190.658 82.6821L-8.50348 288.573L-6.46767 290.776L194.564 82.9518L194.393 82.7666L393.554 -123.124L391.518 -125.328ZM197.762 90.4115L398.794 -117.413L400.83 -115.21L201.669 90.6811L201.84 90.8663L0.808365 298.691L-1.22745 296.487L197.934 90.5967L197.762 90.4115ZM406.07 -109.499L205.039 98.326L205.21 98.5111L6.04871 304.402L8.08452 306.606L209.116 98.7809L208.945 98.5957L408.106 -107.295L406.07 -109.499ZM212.314 106.24L413.346 -101.584L415.382 -99.3808L216.221 106.51L216.392 106.695L15.3606 314.52L13.3248 312.316L212.486 106.426L212.314 106.24ZM420.622 -93.6698L219.591 114.155L219.762 114.34L20.6009 320.231L22.6367 322.434L223.668 114.61L223.497 114.424L422.658 -91.4663L420.622 -93.6698ZM226.867 122.069L427.898 -85.7553L429.934 -83.5518L230.773 122.339L230.944 122.524L29.9126 330.349L27.8767 328.146L227.038 122.255L226.867 122.069ZM435.174 -77.8409L234.143 129.984L234.314 130.169L35.1532 336.06L37.189 338.263L238.221 130.439L238.049 130.253L437.21 -75.6374L435.174 -77.8409ZM241.419 137.898L442.45 -69.9263L444.486 -67.7228L245.325 138.168L245.497 138.353L44.465 346.178L42.4292 343.974L241.59 138.084L241.419 137.898ZM449.727 -62.012L248.695 145.813L248.866 145.998L49.7052 351.889L51.741 354.092L252.773 146.268L252.602 146.082L451.763 -59.8085L449.727 -62.012ZM255.971 153.727L457.002 -54.0974L459.038 -51.8939L259.877 153.997L260.049 154.182L59.0169 362.007L56.9811 359.803L256.142 153.913L255.971 153.727ZM464.279 -46.1829L263.247 161.642L263.418 161.827L64.2572 367.718L66.293 369.921L267.325 162.097L267.154 161.911L466.315 -43.9794L464.279 -46.1829ZM270.523 169.556L471.555 -38.2685L473.591 -36.065L274.43 169.826L274.601 170.011L73.5693 377.836L71.5335 375.632L270.694 169.742L270.523 169.556ZM478.831 -30.354L277.799 177.471L277.97 177.656L78.8095 383.547L80.8453 385.75L281.877 177.926L281.706 177.74L480.867 -28.1505L478.831 -30.354ZM285.075 185.385L486.107 -22.4394L488.143 -20.2359L288.982 185.655L289.153 185.84L88.1212 393.665L86.0854 391.461L285.246 185.57L285.075 185.385ZM493.383 -14.5251L292.351 193.3L292.522 193.485L93.3614 399.376L95.3972 401.579L296.429 193.754L296.258 193.569L495.418 -12.3215L493.383 -14.5251ZM299.627 201.214L500.659 -6.61052L502.695 -4.40701L303.534 201.484L303.705 201.669L102.673 409.494L100.638 407.29L299.798 201.399L299.627 201.214ZM507.935 1.30386L306.904 209.129L307.075 209.314L107.914 415.205L109.95 417.408L310.981 209.583L310.81 209.398L509.971 3.50739L507.935 1.30386ZM314.179 217.043L515.211 9.21838L517.247 11.4219L318.086 217.313L318.257 217.498L117.226 425.323L115.19 423.119L314.351 217.228L314.179 217.043ZM522.487 17.1329L321.456 224.958L321.627 225.143L122.466 431.034L124.502 433.237L325.533 225.412L325.362 225.227L524.523 19.3365L522.487 17.1329ZM328.731 232.872L529.763 25.0473L531.799 27.2508L332.638 233.142L332.809 233.327L131.778 441.152L129.742 438.948L328.903 233.057L328.731 232.872ZM537.039 32.9619L336.007 240.787L336.179 240.972L137.018 446.863L139.054 449.066L340.085 241.241L339.914 241.056L539.075 35.1654L537.039 32.9619ZM343.284 248.701L544.315 40.8762L546.351 43.0797L347.19 248.97L347.362 249.156L146.33 456.98L144.294 454.777L343.455 248.886L343.284 248.701ZM551.591 48.7908L350.56 256.616L350.731 256.801L151.57 462.692L153.606 464.895L354.637 257.07L354.466 256.885L553.627 50.9943L551.591 48.7908ZM357.836 264.53L558.867 56.7053L560.903 58.9088L361.742 264.8L361.914 264.985L160.882 472.81L158.846 470.606L358.007 264.715L357.836 264.53ZM-140.546 149.611L60.4857 -58.2137L62.5215 -56.0102L-138.51 151.815L-140.546 149.611Z" fill="#0077FD"/>
</g>
</svg>
